<svg width="26" height="26" viewBox="0 0 26 26" fill="none" xmlns="http://www.w3.org/2000/svg">
<path d="M24.44 13.2709C24.44 12.4259 24.3642 11.6134 24.2233 10.8334H13V15.4484H19.4133C19.1317 16.9325 18.2867 18.1892 17.0192 19.0342V22.035H20.8867C23.14 19.955 24.44 16.9 24.44 13.2709Z" fill="#4285F4"/>
<path d="M13 24.9167C16.2175 24.9167 18.915 23.855 20.8867 22.035L17.0192 19.0342C15.9575 19.7492 14.6033 20.1825 13 20.1825C9.90166 20.1825 7.26916 18.0917 6.32666 15.275H2.36166V18.3517C4.3225 22.2409 8.34166 24.9167 13 24.9167Z" fill="#34A853"/>
<path d="M6.32667 15.2642C6.08834 14.5492 5.9475 13.7908 5.9475 13C5.9475 12.2092 6.08834 11.4508 6.32667 10.7358V7.65918H2.36167C1.54917 9.26251 1.08334 11.0717 1.08334 13C1.08334 14.9283 1.54917 16.7375 2.36167 18.3408L5.44917 15.9358L6.32667 15.2642Z" fill="#FBBC05"/>
<path d="M13 5.82837C14.755 5.82837 16.315 6.43504 17.5608 7.60504L20.9733 4.19254C18.9042 2.26421 16.2175 1.08337 13 1.08337C8.34166 1.08337 4.3225 3.75921 2.36166 7.65921L6.32666 10.7359C7.26916 7.91921 9.90166 5.82837 13 5.82837Z" fill="#EA4335"/>
</svg>
