<svg width="20" height="21" viewBox="0 0 20 21" fill="none" xmlns="http://www.w3.org/2000/svg">
<path d="M18.8212 7.95883L12.6484 1.40822C11.8837 0.59979 10.848 0.145874 9.76833 0.145874C8.68863 0.145874 7.65295 0.59979 6.88825 1.40822L0.715464 7.95883C0.487614 8.19856 0.307015 8.48397 0.184185 8.79845C0.0613562 9.11293 -0.00124787 9.45018 1.88451e-05 9.79058V18.2612C-0.000419211 18.6015 0.0624596 18.9386 0.185051 19.2531C0.307643 19.5676 0.487537 19.8534 0.71443 20.094C0.941324 20.3347 1.21076 20.5255 1.50729 20.6555C1.80383 20.7855 2.12164 20.8523 2.44251 20.8518H17.0842C17.405 20.8523 17.7228 20.7855 18.0194 20.6555C18.3159 20.5255 18.5853 20.3347 18.8122 20.094C19.0391 19.8534 19.219 19.5676 19.3416 19.2531C19.4642 18.9386 19.5271 18.6015 19.5267 18.2612V9.79058C19.53 9.45081 19.4693 9.11377 19.3481 8.79922C19.227 8.48467 19.0478 8.19897 18.8212 7.95883ZM12.2125 19.14H7.3275V15.7447C7.3275 15.0576 7.58483 14.3987 8.04289 13.9129C8.50095 13.4271 9.1222 13.1541 9.76999 13.1541C10.4178 13.1541 11.039 13.4271 11.4971 13.9129C11.9552 14.3987 12.2125 15.0576 12.2125 15.7447V19.14Z" fill="#666666"/>
</svg>
