<svg width="41" height="41" viewBox="0 0 41 41" fill="none" xmlns="http://www.w3.org/2000/svg">
<g clip-path="url(#clip0_1_16)">
<path d="M23.4165 23.4179C20.3155 23.4164 17.3417 22.185 15.1475 19.9939C12.9532 17.8027 11.7176 14.8307 11.7117 11.7297C11.7006 5.27852 17.0692 0 23.5218 0H27.5029C27.9783 0 28.4341 0.188832 28.7703 0.524956C29.1064 0.86108 29.2952 1.31696 29.2952 1.79231V23.4165L23.4165 23.4179Z" fill="url(#paint0_linear_1_16)"/>
<path d="M11.1365 29.2786C4.98742 29.3188 5.10448e-07 24.2995 5.10448e-07 18.149V13.5927C-0.000181609 13.3454 0.048371 13.1005 0.14289 12.8719C0.237408 12.6434 0.376038 12.4357 0.550854 12.2608C0.72567 12.0858 0.933247 11.947 1.16172 11.8523C1.3902 11.7577 1.63509 11.7089 1.88241 11.7089H18.113C24.524 11.7089 27.9063 19.3703 23.5274 24.0541C20.8091 26.9609 16.8558 29.2411 11.1365 29.2786Z" fill="url(#paint1_linear_1_16)"/>
<path d="M29.2536 30.3778C28.8475 36.2219 23.6826 41.0014 17.8247 41.0014H13.7411C13.2025 41.0003 12.6863 40.7856 12.3058 40.4043C11.9254 40.0231 11.7117 39.5065 11.7117 38.9679V22.6943C11.7117 16.8849 18.4332 13.6024 22.9743 17.2245C26.6296 20.1451 29.6681 24.3979 29.2536 30.3778Z" fill="url(#paint2_linear_1_16)"/>
<path d="M30.1034 11.7256C33.0364 11.8493 35.808 13.1021 37.8388 15.222C39.8696 17.3419 41.0022 20.1648 41 23.1005V27.4267C41 27.6722 40.9516 27.9154 40.8577 28.1423C40.7637 28.3691 40.6259 28.5753 40.4523 28.7489C40.2787 28.9226 40.0725 29.0603 39.8457 29.1543C39.6188 29.2482 39.3756 29.2966 39.1301 29.2966H22.0636C16.2334 29.2966 12.9399 22.5917 16.5189 17.9855C19.2829 14.4189 23.5607 11.4594 30.1034 11.7256Z" fill="url(#paint3_linear_1_16)"/>
<path d="M20.1673 16.2819C19.2584 16.2819 18.37 16.5514 17.6143 17.0564C16.8586 17.5614 16.2696 18.2791 15.9218 19.1189C15.5741 19.9586 15.4832 20.8826 15.6606 21.774C15.838 22.6654 16.2758 23.4842 16.9186 24.1268C17.5613 24.7694 18.3802 25.2069 19.2717 25.384C20.1632 25.5612 21.0871 25.47 21.9268 25.122C22.7664 24.774 23.484 24.1848 23.9887 23.4289C24.4935 22.6731 24.7627 21.7845 24.7625 20.8756C24.761 19.6575 24.2764 18.4897 23.4149 17.6285C22.5534 16.7673 21.3855 16.283 20.1673 16.2819Z" fill="white"/>
</g>
<defs>
<linearGradient id="paint0_linear_1_16" x1="28.86" y1="23.8129" x2="15.3795" y2="-1.71468" gradientUnits="userSpaceOnUse">
<stop stop-color="#FFED00"/>
<stop offset="1" stop-color="#F39200"/>
</linearGradient>
<linearGradient id="paint1_linear_1_16" x1="18.2503" y1="9.61581" x2="2.91233" y2="30.7867" gradientUnits="userSpaceOnUse">
<stop stop-color="#FFED00"/>
<stop offset="1" stop-color="#F39200"/>
</linearGradient>
<linearGradient id="paint2_linear_1_16" x1="10.5362" y1="20.2117" x2="28.1378" y2="40.8295" gradientUnits="userSpaceOnUse">
<stop stop-color="#FFED00"/>
<stop offset="1" stop-color="#F39200"/>
</linearGradient>
<linearGradient id="paint3_linear_1_16" x1="20.0356" y1="29.359" x2="40.5107" y2="13.9143" gradientUnits="userSpaceOnUse">
<stop stop-color="#FFED00"/>
<stop offset="1" stop-color="#F39200"/>
</linearGradient>
<clipPath id="clip0_1_16">
<rect width="41" height="41" fill="white"/>
</clipPath>
</defs>
</svg>
