<svg width="80" height="25" viewBox="0 0 80 25" fill="none" xmlns="http://www.w3.org/2000/svg">
<path d="M8.01 7.05C10.8 7.05 12.72 7.47 13.74 8.31C14.76 9.15 15.27 10.44 15.27 12.21V22.59C15.27 23.07 15.06 23.37 14.61 23.52C12.78 23.94 10.5 24.15 7.8 24.15C5.28 24.15 4.02 24.03 2.7 23.34C1.41 22.62 0.9 21.27 0.87 18.96C0.9 17.04 1.38 15.75 2.34 15.06C3.33 14.37 4.89 14.04 7.02 14.04H10.83V12.96C10.83 11.58 9.9 10.89 8.01 10.89H2.58C2.25 10.89 2.16 10.8 2.16 10.44V7.98C2.16 7.65 2.25 7.59 2.58 7.5C4.11 7.2 5.91 7.05 8.01 7.05ZM10.83 20.25V16.92H7.38C5.82 16.92 5.28 17.4 5.28 18.72C5.28 20.13 5.91 20.55 7.83 20.55C9.12 20.55 10.11 20.46 10.83 20.25ZM37.7229 7.2H41.5329C41.8029 7.2 41.9229 7.35 41.8929 7.62L39.3129 21.15C39.0729 22.44 38.6829 23.28 38.1429 23.64C37.6329 23.97 36.6429 24.15 35.2029 24.15C33.4929 24.15 32.4129 24 31.9329 23.67C31.4829 23.34 31.0929 22.5 30.7929 21.15L29.3229 14.49L27.8529 21.15C27.5829 22.5 27.1929 23.34 26.7129 23.67C26.2629 24 25.1829 24.15 23.4729 24.15C22.0329 24.15 21.0429 23.97 20.5029 23.64C19.9929 23.28 19.6029 22.44 19.3329 21.15L16.7829 7.62C16.7229 7.35 16.8429 7.2 17.1429 7.2H20.9529C21.1029 7.2 21.2229 7.35 21.2829 7.62L23.3529 19.86C23.4729 20.34 23.5629 20.43 23.8329 20.43C24.1629 20.43 24.2229 20.37 24.3129 19.86L27.1029 8.13C27.1929 7.86 27.3429 7.71 27.5829 7.71H31.0929C31.3329 7.71 31.4829 7.86 31.5429 8.13L34.3329 19.86C34.4529 20.37 34.4829 20.43 34.8129 20.43C35.0829 20.43 35.2029 20.34 35.3229 19.86L37.3929 7.62C37.4529 7.35 37.5729 7.2 37.7229 7.2ZM49.9866 0.629999C51.0966 0.629999 52.1766 0.719999 53.2266 0.929998C53.5566 0.989999 53.7066 1.17 53.7066 1.5V3.99C53.7066 4.32 53.5266 4.47 53.1966 4.47H50.8266C49.5966 4.47 49.1466 4.68 49.1466 5.64V7.23H52.8066C53.1066 7.23 53.2266 7.41 53.1666 7.74L52.7166 10.26C52.6566 10.53 52.4766 10.68 52.2066 10.68H49.1466V23.52C49.1466 23.85 48.9966 24 48.6966 24H45.1566C44.8566 24 44.7066 23.85 44.7066 23.52V10.68H42.7566C42.4266 10.68 42.2466 10.53 42.2466 10.23V7.68C42.2466 7.38 42.4266 7.23 42.7566 7.23H44.7066V4.86C44.7066 3.06 45.2766 1.89 46.3566 1.32C47.4366 0.749999 48.4266 0.629999 49.9866 0.629999ZM59.8901 7.05C62.6801 7.05 64.6001 7.47 65.6201 8.31C66.6401 9.15 67.1501 10.44 67.1501 12.21V22.59C67.1501 23.07 66.9401 23.37 66.4901 23.52C64.6601 23.94 62.3801 24.15 59.6801 24.15C57.1601 24.15 55.9001 24.03 54.5801 23.34C53.2901 22.62 52.7801 21.27 52.7501 18.96C52.7801 17.04 53.2601 15.75 54.2201 15.06C55.2101 14.37 56.7701 14.04 58.9001 14.04H62.7101V12.96C62.7101 11.58 61.7801 10.89 59.8901 10.89H54.4601C54.1301 10.89 54.0401 10.8 54.0401 10.44V7.98C54.0401 7.65 54.1301 7.59 54.4601 7.5C55.9901 7.2 57.7901 7.05 59.8901 7.05ZM62.7101 20.25V16.92H59.2601C57.7001 16.92 57.1601 17.4 57.1601 18.72C57.1601 20.13 57.7901 20.55 59.7101 20.55C61.0001 20.55 61.9901 20.46 62.7101 20.25ZM75.113 7.05C76.823 7.05 78.143 7.17 79.103 7.38C79.433 7.47 79.583 7.65 79.583 7.98V10.44C79.583 10.74 79.403 10.89 79.073 10.89H76.253C74.603 10.89 74.153 11.19 74.153 12.42V23.52C74.153 23.85 74.003 24 73.703 24H70.133C69.833 24 69.683 23.85 69.683 23.52V11.28C69.683 9.84 70.163 8.76 70.793 8.16C71.903 7.23 73.433 7.05 75.113 7.05Z" fill="#666666"/>
</svg>
