<svg width="12" height="12" viewBox="0 0 12 12" fill="none" xmlns="http://www.w3.org/2000/svg">
<g clip-path="url(#clip0_2_67)">
<path d="M6.00421 6.59239e-07C4.81712 -0.000555613 3.65653 0.350941 2.66924 1.01005C1.68194 1.66915 0.912289 2.60626 0.457625 3.70282C0.00296166 4.79939 -0.116288 6.00615 0.11496 7.17049C0.346208 8.33484 0.917565 9.40446 1.75676 10.2441C2.59596 11.0836 3.66531 11.6555 4.82954 11.8873C5.99378 12.1191 7.2006 12.0004 8.29738 11.5462C9.39416 11.0921 10.3316 10.3229 10.9912 9.3359C11.6508 8.34891 12.0028 7.18848 12.0028 6.0014C12.0028 4.41021 11.3709 2.88418 10.246 1.75877C9.12115 0.633373 7.59539 0.000746294 6.00421 6.59239e-07ZM6.00421 11.0045C5.01513 11.0045 4.04828 10.7111 3.22593 10.1616C2.40359 9.612 1.7627 8.83093 1.38432 7.91709C1.00595 7.00325 0.907093 5.9977 1.10026 5.02767C1.29342 4.05765 1.76993 3.16673 2.4695 2.46754C3.16908 1.76836 4.0603 1.29233 5.03043 1.09971C6.00057 0.907097 7.00604 1.00652 7.91966 1.38541C8.83329 1.76429 9.61402 2.40563 10.1631 3.22829C10.7122 4.05094 11.005 5.01795 11.0044 6.00703C11.0037 7.33268 10.4766 8.6038 9.53891 9.54092C8.60127 10.478 7.32986 11.0045 6.00421 11.0045Z" fill="white"/>
<path d="M6.00422 3.0007C5.87146 3.0007 5.74413 3.05345 5.65026 3.14732C5.55638 3.2412 5.50364 3.3685 5.50364 3.50126V5.66111L3.81627 6.71571C3.75324 6.74653 3.69739 6.79027 3.65235 6.84407C3.60731 6.89787 3.57408 6.96051 3.55482 7.02798C3.53555 7.09544 3.53069 7.16624 3.54054 7.2357C3.55039 7.30517 3.57473 7.37179 3.61199 7.43124C3.64925 7.4907 3.69859 7.54163 3.75681 7.58078C3.81503 7.61994 3.88083 7.64642 3.94995 7.65851C4.01906 7.67059 4.08995 7.66803 4.158 7.65095C4.22605 7.63388 4.28976 7.60268 4.34498 7.5594L6.26577 6.36136C6.33859 6.31576 6.39853 6.2523 6.43988 6.17698C6.48123 6.10166 6.50261 6.017 6.502 5.93108V3.49285C6.49979 3.36204 6.44647 3.23728 6.35343 3.1453C6.2604 3.05332 6.13505 3.00142 6.00422 3.0007Z" fill="white"/>
</g>
<defs>
<clipPath id="clip0_2_67">
<rect width="12" height="12" fill="white"/>
</clipPath>
</defs>
</svg>
